HIERARCHY
ROOT root
{
	OFFSET	0	13.1	24.9
	CHANNELS 6  Xposition Yposition Zposition Xrotation Yrotation Zrotation
	JOINT spine_1
	{
		OFFSET	0	9.99999	0
		CHANNELS 3  Xrotation Yrotation Zrotation
		JOINT spine_2
		{
			OFFSET	0	112	-10
			CHANNELS 3  Xrotation Yrotation Zrotation
			JOINT spine_3
			{
				OFFSET	0	206.5	19.3
				CHANNELS 3  Xrotation Yrotation Zrotation
				JOINT spine_4
				{
					OFFSET	0	110.4	14.6
					CHANNELS 3  Xrotation Yrotation Zrotation
					JOINT neck_1
					{
						OFFSET	0	71.8	-50.3
						CHANNELS 3  Xrotation Yrotation Zrotation
						JOINT neck_2
						{
							OFFSET	0	86.2	-25.8
							CHANNELS 3  Xrotation Yrotation Zrotation
							JOINT head_ee
							{
								OFFSET	0	179.8	-8.7
								CHANNELS 3  Xrotation Yrotation Zrotation
								End Site
								{
									OFFSET	1	0	0
								}
							}
						}
					}
					JOINT left_clavicle
					{
						OFFSET	-43.2	22.4	-70.8
						CHANNELS 3  Xrotation Yrotation Zrotation
						JOINT left_shoulder
						{
							OFFSET	-93.9	-5.79999	48.7
							CHANNELS 3  Xrotation Yrotation Zrotation
							JOINT left_elbow
							{
								OFFSET	-291.4	-30.8	15.2
								CHANNELS 3  Xrotation Yrotation Zrotation
								JOINT left_lowarm_twist
								{
									OFFSET	-110.7	-3.89999	13.6
									CHANNELS 3  Xrotation Yrotation Zrotation
									JOINT left_hand
									{
										OFFSET	-110.7	-3.89999	13.6
										CHANNELS 3  Xrotation Yrotation Zrotation
										JOINT left_ee
										{
											OFFSET	-80.8	-5.10001	12.1
											CHANNELS 3  Xrotation Yrotation Zrotation
											End Site
											{
												OFFSET	1	0	0
											}
										}
									}
								}
							}
						}
					}
					JOINT right_clavicle
					{
						OFFSET	43.2	22.4	-70.8
						CHANNELS 3  Xrotation Yrotation Zrotation
						JOINT right_shoulder
						{
							OFFSET	93.9	-5.79999	48.7
							CHANNELS 3  Xrotation Yrotation Zrotation
							JOINT right_elbow
							{
								OFFSET	291.4	-30.8	15.2
								CHANNELS 3  Xrotation Yrotation Zrotation
								JOINT right_lowarm_twist
								{
									OFFSET	110.7	-3.89999	13.6
									CHANNELS 3  Xrotation Yrotation Zrotation
									JOINT right_hand
									{
										OFFSET	110.7	-3.89999	13.6
										CHANNELS 3  Xrotation Yrotation Zrotation
										JOINT right_ee
										{
											OFFSET	80.8	-5.10001	12.1
											CHANNELS 3  Xrotation Yrotation Zrotation
											End Site
											{
												OFFSET	1	0	0
											}
										}
									}
								}
							}
						}
					}
				}
			}
		}
	}
	JOINT left_hip
	{
		OFFSET	-82.8	-127.5	0.300001
		CHANNELS 3  Xrotation Yrotation Zrotation
		JOINT left_knee
		{
			OFFSET	-28.2	-396.7	2.2
			CHANNELS 3  Xrotation Yrotation Zrotation
			JOINT left_ankle
			{
				OFFSET	-11.7	-411.3	35.4
				CHANNELS 3  Xrotation Yrotation Zrotation
				JOINT left_toes
				{
					OFFSET	0	-60	-88.6
					CHANNELS 3  Xrotation Yrotation Zrotation
					JOINT left_foot_ee
					{
						OFFSET	-22.5	-16.5	-42.2
						CHANNELS 3  Xrotation Yrotation Zrotation
						End Site
						{
							OFFSET	1	0	0
						}
					}
				}
			}
		}
	}
	JOINT right_hip
	{
		OFFSET	82.8	-127.5	0.300001
		CHANNELS 3  Xrotation Yrotation Zrotation
		JOINT right_knee
		{
			OFFSET	28.2	-396.7	2.2
			CHANNELS 3  Xrotation Yrotation Zrotation
			JOINT right_ankle
			{
				OFFSET	11.7	-411.3	35.4
				CHANNELS 3  Xrotation Yrotation Zrotation
				JOINT right_toes
				{
					OFFSET	0	-60	-88.6
					CHANNELS 3  Xrotation Yrotation Zrotation
					JOINT right_foot_ee
					{
						OFFSET	22.5	-16.5	-42.2
						CHANNELS 3  Xrotation Yrotation Zrotation
						End Site
						{
							OFFSET	1	0	0
						}
					}
				}
			}
		}
	}
}
MOTION
Frames: 10
Frame Time: 0.02
3506.22947503 746.48 -1476.18623751 56.6951339692 82.9303437773 -57.562875993 -1.77432 0.199311 0.653828 -1.77409 0.157304 0.665185 -1.77199 -0.00715124 0.683494 -1.77262 0.100881 0.676046 -7.8368 2.97502 -3.49986 -7.80131 8.03035 -2.8372 -0.0 0.0 -0.0 -2.31928 6.08738 -3.48825 -7.52349 -26.216 68.6131 1.50018 -36.6153 0.496385 26.8654 0.152553 -3.39716 0.184704 5.24475 3.40593 -0.0 0.0 -0.0 9.46775 24.6027 -17.8185 -11.8985 30.1815 -54.3516 0.782567 21.1893 -0.14638 -5.58677 0.230025 -0.675823 2.11399 -10.6849 -18.2461 0.0 0.0 0.0 15.734 23.0675 -10.0563 -21.5294 0.27433 3.27306 12.5654 -1.51239 -1.79278 40.1756 -0.0 -0.0 -0.0 0.0 -0.0 -7.77637 16.4305 -6.27838 -13.9841 -0.318787 -2.11705 27.1354 6.80701 3.6714 -23.8075 0.0 0.0 0.0 0.0 0.0 
3506.3417217 746.48 -1478.90328975 43.847563115 81.4608419254 -44.5972657475 -1.77432 0.199311 0.653828 -1.77409 0.157304 0.665185 -1.77199 -0.00715124 0.683494 -1.77262 0.100881 0.676046 -7.8368 2.97502 -3.49986 -7.80131 8.03035 -2.8372 -0.0 0.0 -0.0 -2.31928 6.08738 -3.48825 -7.52349 -26.216 68.6131 1.50018 -36.6153 0.496385 26.8654 0.152553 -3.39716 0.184704 5.24475 3.40593 -0.0 0.0 -0.0 9.46775 24.6027 -17.8185 -11.8985 30.1815 -54.3516 0.782567 21.1893 -0.14638 -5.58677 0.230025 -0.675823 2.11399 -10.6849 -18.2461 0.0 0.0 0.0 15.734 23.0675 -10.0563 -21.5294 0.27433 3.27306 12.5654 -1.51239 -1.79278 40.1756 -0.0 -0.0 -0.0 0.0 -0.0 -7.77637 16.4305 -6.27838 -13.9841 -0.318787 -2.11705 27.1354 6.80701 3.6714 -23.8075 0.0 0.0 0.0 0.0 0.0 
3506.36589635 746.48 -1479.28052747 42.4212214205 81.2290946502 -43.154498878 -1.77432 0.199311 0.653828 -1.77409 0.157304 0.665185 -1.77199 -0.00715124 0.683494 -1.77262 0.100881 0.676046 -7.8368 2.97502 -3.49986 -7.80131 8.03035 -2.8372 -0.0 0.0 -0.0 -2.31928 6.08738 -3.48825 -7.52349 -26.216 68.6131 1.50018 -36.6153 0.496385 26.8654 0.152553 -3.39716 0.184704 5.24475 3.40593 -0.0 0.0 -0.0 9.46775 24.6027 -17.8185 -11.8985 30.1815 -54.3516 0.782567 21.1893 -0.14638 -5.58677 0.230025 -0.675823 2.11399 -10.6849 -18.2461 0.0 0.0 0.0 15.734 23.0675 -10.0563 -21.5294 0.27433 3.27306 12.5654 -1.51239 -1.79278 40.1756 -0.0 -0.0 -0.0 0.0 -0.0 -7.77637 16.4305 -6.27838 -13.9841 -0.318787 -2.11705 27.1354 6.80701 3.6714 -23.8075 0.0 0.0 0.0 0.0 0.0 
3498.89401605 742.229 -1477.74996885 53.0013270569 81.1887473679 -52.6738738153 -2.16363 0.182418 0.672732 -2.16339 0.139242 0.682976 -2.16141 -0.033693 0.69621 -2.16208 0.0766805 0.692794 -7.49383 3.1408 -3.35126 -7.45871 8.24193 -2.68032 -0.0 0.0 -0.0 -2.36268 6.61067 -3.4789 -8.58047 -26.2118 68.6755 1.33195 -33.4155 0.399817 26.8523 0.152868 -3.39552 -0.0494964 5.51566 1.98056 -0.0 0.0 -0.0 9.34619 24.4934 -17.5584 -10.1792 30.248 -53.0157 0.91938 24.4858 -0.199501 -5.8246 0.241274 -0.704076 1.99269 -12.2951 -17.9764 0.0 0.0 0.0 17.5863 22.3954 -9.46139 -23.449 0.238764 3.56547 12.7533 -1.08031 -1.81607 40.1241 -0.0 -0.0 -0.0 0.0 -0.0 -8.97056 16.6287 -6.26826 -14.2561 -0.319831 -2.15876 27.9557 5.06234 3.73921 -24.5674 0.0 0.0 0.0 0.0 0.0 
3498.84255268 742.229 -1475.88927572 60.9968036465 81.9591614221 -60.7561271607 -2.16363 0.182418 0.672732 -2.16339 0.139242 0.682976 -2.16141 -0.033693 0.69621 -2.16208 0.0766805 0.692794 -7.49383 3.1408 -3.35126 -7.45871 8.24193 -2.68032 -0.0 0.0 -0.0 -2.36268 6.61067 -3.4789 -8.58047 -26.2118 68.6755 1.33195 -33.4155 0.399817 26.8523 0.152868 -3.39552 -0.0494964 5.51566 1.98056 -0.0 0.0 -0.0 9.34619 24.4934 -17.5584 -10.1792 30.248 -53.0157 0.91938 24.4858 -0.199501 -5.8246 0.241274 -0.704076 1.99269 -12.2951 -17.9764 0.0 0.0 0.0 17.5863 22.3954 -9.46139 -23.449 0.238764 3.56547 12.7533 -1.08031 -1.81607 40.1241 -0.0 -0.0 -0.0 0.0 -0.0 -8.97056 16.6287 -6.26826 -14.2561 -0.319831 -2.15876 27.9557 5.06234 3.73921 -24.5674 0.0 0.0 0.0 0.0 0.0 
3494.59862932 745.929 -1468.00821718 74.1646509244 82.4369537163 -75.5150462199 -2.26901 0.176136 0.721374 -2.26873 0.129877 0.73112 -2.26671 -0.0560164 0.740449 -2.26747 0.0616235 0.740004 -7.36294 3.28076 -3.2024 -7.32973 8.39855 -2.51269 -0.0 0.0 -0.0 -2.31545 7.0143 -3.32518 -9.36028 -26.2714 68.9737 1.21982 -31.1418 0.339924 26.8426 0.153101 -3.3943 -0.214213 5.76047 1.00383 -0.0 0.0 -0.0 9.4122 24.4977 -17.705 -8.39927 30.5042 -52.111 1.02933 27.0165 -0.247284 -5.99042 0.249186 -0.723747 1.90303 -13.4205 -17.7552 0.0 0.0 0.0 19.068 21.8484 -9.57646 -24.7801 0.208358 3.76747 12.7664 -0.749809 -1.81625 40.0656 -0.0 -0.0 -0.0 0.0 -0.0 -9.82882 16.8566 -6.2317 -14.4668 -0.320504 -2.19108 28.4036 3.82633 3.77357 -25.1334 0.0 0.0 0.0 0.0 0.0 
3483.44469273 732.871 -1458.78944392 100.546134825 82.7647942947 -101.460407085 -2.17957 0.21062 0.749041 -2.17927 0.162532 0.760924 -2.17672 -0.0305763 0.777487 -2.17755 0.0925933 0.772559 -7.43729 3.36772 -3.12553 -7.40624 8.50393 -2.41191 -0.0 0.0 -0.0 -2.29034 7.80001 -3.14736 -10.5902 -26.3178 69.9006 1.12128 -29.049 0.290503 26.8282 0.153448 -3.39249 -0.342566 6.13546 0.322417 -0.0 0.0 -0.0 9.4689 24.5728 -17.824 -5.90854 30.8878 -50.3799 1.15227 29.7169 -0.305711 -6.10465 0.25467 -0.737286 1.82681 -14.1034 -17.4776 0.0 0.0 0.0 21.5614 21.3782 -9.87025 -25.2225 0.197215 3.83444 12.2401 -0.482202 -1.74379 39.7933 -0.0 -0.0 -0.0 0.0 -0.0 -11.0321 17.0769 -6.01105 -14.6192 -0.320917 -2.21446 28.6217 2.94927 3.78774 -25.5305 0.0 0.0 0.0 0.0 0.0 
3473.34296081 732.918 -1454.9088086 103.460238314 82.1936568518 -105.15888472 -2.24287 0.229761 0.761533 -2.24256 0.180838 0.774609 -2.23969 -0.0170921 0.795253 -2.24056 0.108714 0.787973 -8.88535 3.93512 -3.14156 -8.86982 9.54963 -2.18186 -0.0 0.0 -0.0 -2.40299 8.2525 -3.27096 -12.3584 -26.2938 70.3576 1.02352 -26.8853 0.244648 27.3327 0.141062 -3.45575 -0.440532 6.51994 -0.154036 -0.0 0.0 -0.0 9.15614 23.8756 -17.1948 -4.42774 30.8393 -48.8105 1.24351 31.6317 -0.352263 -6.74321 0.285822 -0.812768 1.63836 -14.3811 -16.3341 0.0 0.0 0.0 23.2529 20.9865 -9.84571 -25.518 0.189484 3.87913 11.871 -0.0652191 -1.69188 39.115 -0.0 -0.0 -0.0 0.0 -0.0 -12.1785 20.7513 -5.20741 -14.7214 -0.321159 -2.23015 28.7556 2.33466 3.79607 -25.9148 0.0 0.0 0.0 0.0 0.0 
3463.74220707 731.179 -1445.86551081 113.573217438 81.4145017016 -115.513149982 -2.27401 0.285685 0.816858 -2.27366 0.233129 0.83338 -2.26976 0.0185255 0.865173 -2.27077 0.154926 0.851391 -9.91925 4.34364 -3.11582 -9.91972 10.2814 -1.96459 -0.0 0.0 -0.0 -2.48615 8.62151 -3.35455 -13.5824 -26.2756 70.7255 0.946708 -25.1248 0.210967 27.6311 0.133476 -3.49311 -0.520421 6.95228 -0.490236 -0.0 0.0 -0.0 9.1825 23.4341 -17.2946 -2.52809 31.0319 -47.965 1.33089 33.3946 -0.399233 -7.12752 0.304976 -0.858027 1.49102 -14.5498 -15.4321 0.0 0.0 0.0 24.5166 20.6777 -9.87277 -25.1844 0.198194 3.82868 11.3289 0.161888 -1.61708 38.578 -0.0 -0.0 -0.0 0.0 -0.0 -13.1468 23.3125 -4.64752 -14.792 -0.32131 -2.24097 28.6472 1.88595 3.77986 -26.2383 0.0 0.0 0.0 0.0 0.0 
3454.14286244 727.035 -1442.16718158 117.374975611 80.8172670863 -119.247061587 -2.29346 0.353294 0.741308 -2.29321 0.305408 0.762285 -2.28868 0.105954 0.814323 -2.28953 0.233228 0.787372 -10.6867 4.64643 -3.04837 -10.7022 10.794 -1.74796 -0.0 0.0 -0.0 -2.45928 9.0431 -3.2337 -14.3395 -26.3268 71.4476 0.893707 -23.8795 0.188985 27.8468 0.127871 -3.52009 -0.580293 7.40399 -0.686165 -0.0 0.0 -0.0 9.35295 23.2571 -17.6902 -0.741568 31.3381 -47.3632 1.41386 35.0048 -0.445874 -7.38117 0.317785 -0.88783 1.37475 -14.6567 -14.7161 0.0 0.0 0.0 25.372 20.4603 -9.5274 -24.8436 0.206792 3.77708 10.8036 0.200694 -1.54498 38.1688 -0.0 -0.0 -0.0 0.0 -0.0 -13.8531 25.1012 -4.21747 -14.7644 -0.321253 -2.23675 28.5277 1.73363 3.76533 -26.4648 0.0 0.0 0.0 0.0 0.0 
